<svg id="Lag_1" data-name="Lag 1" xmlns="http://www.w3.org/2000/svg" viewBox="0 0 512.42 513.73"><defs><style>.cls-1{fill:#1a9dd9;}.cls-2{fill:#fff;}.cls-3{fill:#29235c;}</style></defs><title>easy</title><ellipse class="cls-1" cx="255.56" cy="256.86" rx="255.56" ry="256.86"/><circle class="cls-2" cx="173.86" cy="191.5" r="32.03"/><circle class="cls-2" cx="487.04" cy="225.59" r="32.03" transform="translate(-182.36 46.95) rotate(-9.22)"/><path class="cls-2" d="M291.73,347.05a94.68,94.68,0,0,0,19,29.41c10.75,11.32,21.5,16.89,32,22.23,8.61,4.36,24.89,12.45,47.71,15.68,11.52,1.63,37.16,4.95,66.67-6.53,25.07-9.76,45-27.11,54.9-41.83,1.93-2.87,13.73-20.92,13.73-20.92.8-.7,6.41-5.43,13.07-3.92,8.46,1.91,10.91,12.16,11.11,13.07,2.18,9.79-4.73,19.19-11.76,27.45-15.72,18.47-30.63,36-60.13,50.33-11.34,5.51-32,15.29-60.79,17-34.6,2.05-59.61-9-83.66-19.6,0,0-39.48-17.4-60.13-44.45-2.13-2.79-9.19-12.46-9.8-25.49-.19-4-.36-9.34,3.27-13.07,5.06-5.22,13.89-3.6,15.68-3.27A22.91,22.91,0,0,1,291.73,347.05Z" transform="translate(-152.52 -33.98)"/><path class="cls-2" d="M404.8,349.67a1211.51,1211.51,0,0,0,133.92-7.81c3.78,2.24,9.38,6.43,11.11,13.07,2.4,9.24-4,18.31-11.76,27.46-15.73,18.47-30.63,36-60.14,50.32-11.33,5.51-32,15.29-60.78,17-37.51,2.21-64.95-10.77-83.66-19.61,0,0-31-14.65-58.75-45.79-2.8-3.14-10.4-12-11.18-24.15-.24-3.61-.52-9.12,3.26-13.07,5.5-5.73,14.95-3.46,15.69-3.27A1212.21,1212.21,0,0,0,404.8,349.67Z" transform="translate(-152.52 -33.98)"/><path class="cls-3" d="M168.38,145A23.26,23.26,0,0,0,157.93,158c-4.3,12.73,2,26.54,2.85,28.45,2.73,5.83,9.13,15.55,52.24,25.86,10.68,2.55,19.57,4.18,25.64,5.17A81.15,81.15,0,0,0,243.41,242c2.63,7.1,6.39,13.73,16.15,24.57,13.14,14.62,19.72,21.94,30.39,27.16,20.18,9.88,38.31,4.08,46.54,1.29,9.64-3.26,25.93-8.78,38.94-28.45,17-25.74,2.81-63.48,16.14-72.41,1.68-1.13,1,0,19-1.3,14.2-1,17.34-2,19.94,1.3,3.87,4.86,1.09,12.16,1.9,27.15.06,1,1.27,20.62,9.5,38.8s20,27.06,23.74,29.74c20.38,14.74,40.66,9.47,52.24,6.47,12.42-3.23,38.33-9.95,51.29-37.5,8.3-17.67,4-28.46,13.29-38.8,9.44-10.54,17.34-3.2,39.89-9,12.69-3.29,37-9.59,41.79-29.75.78-3.26,3.36-16.51-8.55-37.5a217,217,0,0,0-41.79,15.52c-10.38,5.14-18.8,10.35-26.59,5.17-5.86-3.89-8.86-12-10.45-18.1a523.6,523.6,0,0,0-74.08-5.17c-18.06,0-35.19,1-51.28,2.58l-5.7,12.93a59,59,0,0,0-15.2-10.34c-5-2.32-21.91-10.17-38.94,0a44.19,44.19,0,0,0-9.5,7.76l-19.94-10.35-107.32-3.88a31.33,31.33,0,0,0-12.35,10.35,48,48,0,0,0-7.6,16.81Z" transform="translate(-152.52 -33.98)"/></svg>