<svg id="Lag_1" data-name="Lag 1" xmlns="http://www.w3.org/2000/svg" viewBox="0 0 500 50" width="5000" height="1000"><defs><style>.cls-1{fill:none;stroke:#000;stroke-miterlimit:10;}.cls-2{fill:#7faae1;}</style></defs><title>header</title><path class="cls-1" d="M1200.5,875.5" transform="translate(-710 -390.25)"/><path class="cls-2" d="M710,440.25c6.13-.84,15.49-2.19,26.87-4.13,18.66-3.18,29.1-5.76,50.35-9.86,22.26-4.3,33.4-6.45,38.87-7.34,18.64-3,45.94-5.65,81.66-2.75a136.1,136.1,0,0,1,14.35,2.75,132.55,132.55,0,0,1,14.09,4.36,296.44,296.44,0,0,0,40.18,7.57,327.47,327.47,0,0,0,36.52,2.06,220.66,220.66,0,0,0,24-.69c7.14-.65,11.57-1.47,20.35-3,22.78-3.93,34.17-5.89,42-6.65,13.31-1.29,21.18-2.06,32.09-.69s12.56,3.29,27.65,5.51a155.73,155.73,0,0,0,25.57,2.06,132.86,132.86,0,0,0,25.44-2.75V390.25l-500,.11Z" transform="translate(-710 -390.25)"/></svg>